HIERARCHY
ROOT hip
{
	OFFSET 0.000000 0.000000 0.000000 
	CHANNELS 6 Xposition Yposition Zposition Xrotation Zrotation Yrotation
	JOINT abdomen
	{
		OFFSET 0.000000 3.402643 0.000000 
		CHANNELS 3 Xrotation Zrotation Yrotation
		JOINT chest
		{
			OFFSET 0.000000 8.438565 -0.680529 
			CHANNELS 3 Xrotation Zrotation Yrotation
			JOINT neck
			{
				OFFSET 0.000000 10.207942 -0.272212 
				CHANNELS 3 Xrotation Zrotation Yrotation
				JOINT head
				{
					OFFSET 0.000000 3.130431 0.000000 
					CHANNELS 3 Xrotation Zrotation Yrotation
					End Site
					{
						OFFSET 0.000000 3.130435 0.000000 
					}
				}
			}
			JOINT lCollar
			{
				OFFSET 3.470700 6.669187 -0.816635 
				CHANNELS 3 Yrotation Zrotation Xrotation
				JOINT lShldr
				{
					OFFSET 3.198488 0.000000 0.000000 
					CHANNELS 3 Zrotation Yrotation Xrotation
					JOINT lForeArm
					{
						OFFSET 10.139888 0.000000 0.000000 
						CHANNELS 3 Yrotation Zrotation Xrotation
						JOINT lHand
						{
							OFFSET 8.370511 0.000000 0.000000 
							CHANNELS 3 Zrotation Yrotation Xrotation
							End Site
							{
								OFFSET 4.083176 0.000000 0.000000 
							}
						}
					}
				}
			}
			JOINT rCollar
			{
				OFFSET -3.470700 6.669187 -0.816635 
				CHANNELS 3 Yrotation Zrotation Xrotation
				JOINT rShldr
				{
					OFFSET -3.198488 0.000000 0.000000 
					CHANNELS 3 Zrotation Yrotation Xrotation
					JOINT rForeArm
					{
						OFFSET -10.139888 0.000000 0.000000 
						CHANNELS 3 Yrotation Zrotation Xrotation
						JOINT rHand
						{
							OFFSET -8.370511 0.000000 0.000000 
							CHANNELS 3 Zrotation Yrotation Xrotation
							End Site
							{
								OFFSET -4.083176 0.000000 0.000000 
							}
						}
					}
				}
			}
		}
	}
	JOINT lThigh
	{
		OFFSET 5.308129 -1.633274 1.361059 
		CHANNELS 3 Xrotation Zrotation Yrotation
		JOINT lShin
		{
			OFFSET -2.041588 -20.007561 0.000000 
			CHANNELS 3 Xrotation Zrotation Yrotation
			JOINT lFoot
			{
				OFFSET 0.000000 -19.190928 -1.224953 
				CHANNELS 3 Xrotation Yrotation Zrotation
				End Site
				{
					OFFSET 0.000000 -2.449906 4.627600 
				}
			}
		}
	}
	JOINT rThigh
	{
		OFFSET -5.308129 -1.633274 1.361059 
		CHANNELS 3 Xrotation Zrotation Yrotation
		JOINT rShin
		{
			OFFSET 2.041588 -20.007561 0.000000 
			CHANNELS 3 Xrotation Zrotation Yrotation
			JOINT rFoot
			{
				OFFSET 0.000000 -19.190928 -1.224953 
				CHANNELS 3 Xrotation Yrotation Zrotation
				End Site
				{
					OFFSET 0.000000 -2.449906 4.627600 
				}
			}
		}
	}
}
MOTION
Frames: 13
Frame Time: 0.016667
-1.657507 95.729164 -28.845486 142.693939 1.994869 -165.489014 65.714043 4.362456 -0.407540 5.974729 2.820152 -3.772131 12.658293 5.856566 1.464194 27.550310 4.109325 1.792311 -19.910854 12.207492 0.640978 -63.582668 -51.470383 21.640291 -55.988956 5.000000 -10.959599 -56.344322 -30.000000 -45.000000 17.512094 -9.681690 0.508620 89.030823 39.125755 44.783203 58.606617 -5.000000 -19.127476 9.336984 -11.620170 -45.000000 -66.150818 18.817503 20.260038 106.389977 0.573805 -2.064471 32.278866 1.571286 -5.662503 -54.558918 -4.462030 -39.989346 88.630424 -0.419488 13.404116 35.096603 -3.533518 16.054287 
-1.654859 95.642693 -28.835093 142.241241 1.778904 -165.676392 65.736435 4.301442 -0.361053 5.880562 2.869146 -3.605759 12.297374 5.267668 1.284008 27.366405 3.748072 1.840308 -19.613470 12.665836 0.666715 -64.508018 -51.624340 22.104223 -56.322781 5.000000 -10.946625 -56.531120 -30.000000 -45.000000 17.378666 -10.042523 0.527300 89.294273 38.902966 44.587173 59.588135 -5.000000 -18.345261 7.880613 -12.366398 -44.831779 -66.147125 18.911970 20.792673 106.013390 0.524763 -1.998630 32.466991 1.470196 -5.810713 -54.847267 -4.603201 -39.993839 88.347923 -0.341586 13.459404 34.908371 -3.841660 16.024670 
-1.693068 95.516060 -28.817928 141.516953 1.393463 -166.089401 65.752815 4.254864 -0.219907 5.768044 2.976801 -3.361823 11.773536 4.443539 1.050187 27.156885 3.220911 1.887823 -19.142582 13.289957 0.701123 -65.983910 -51.851658 22.914425 -56.891109 5.000000 -10.979782 -56.818401 -30.000000 -45.000000 17.148462 -10.481372 0.551766 89.654800 38.625240 44.490856 61.095871 -5.000000 -17.254154 5.771287 -13.857668 -43.553856 -66.184967 18.930201 21.587984 105.560654 0.466276 -1.888650 32.552498 1.521586 -6.013271 -55.345757 -4.857918 -39.989250 88.013496 -0.262941 13.606349 34.750370 -4.184295 16.009386 
-1.758519 95.362625 -28.796244 140.622284 0.893126 -166.638931 65.773567 4.205724 0.014021 5.638128 3.104038 -3.049084 11.154499 3.455925 0.782970 26.952057 2.596206 1.916078 -18.556196 14.011595 0.740695 -67.820351 -52.122654 23.950903 -57.635056 5.000000 -11.031130 -57.180099 -30.000000 -45.000000 16.860250 -10.959227 0.576516 90.000000 38.303898 44.455406 62.944366 -5.000000 -15.975541 3.117829 -15.736705 -41.784100 -66.222984 18.938896 22.593273 104.977257 0.456477 -1.811041 32.690704 1.505677 -6.380359 -56.005573 -5.214911 -39.996029 87.685158 -0.213179 13.831350 34.618938 -4.482561 16.023361 
-1.842976 95.215881 -28.773243 139.740250 0.361910 -167.226273 65.807747 4.170601 0.309413 5.508308 3.241011 -2.746089 10.578159 2.512434 0.549248 26.775234 1.971544 1.925041 -17.979303 14.674714 0.777365 -69.697685 -52.340569 25.049709 -58.390522 5.000000 -11.091540 -57.541714 -30.000000 -45.000000 16.581614 -11.398072 0.599211 90.000000 37.992836 44.464222 64.773392 -5.000000 -14.760667 0.441143 -17.553963 -39.836716 -66.264061 18.862534 23.536148 104.456306 0.398126 -1.693529 32.733173 1.653336 -6.660370 -56.620163 -5.556326 -39.991844 87.376343 -0.154962 14.065331 34.474003 -4.706586 16.051085 
-2.003458 95.095993 -28.744980 138.971039 -0.200595 -167.997986 65.924576 4.197926 0.836607 5.369198 3.397496 -2.463199 10.191844 1.816527 0.387244 26.752857 1.346942 1.865867 -17.478155 15.142797 0.801519 -71.592438 -52.457386 26.276485 -59.246025 5.000000 -11.229020 -57.916275 -30.000000 -45.000000 16.330860 -11.690635 0.616301 90.000000 37.689911 44.668884 66.499893 -5.000000 -13.731399 -1.900212 -19.612356 -37.585323 -66.266716 18.640158 24.297815 104.051605 0.329860 -1.617750 32.596085 1.918309 -7.017520 -57.204899 -5.896686 -39.992733 87.298721 -0.116093 14.382013 34.599682 -4.656332 16.165407 
-2.163940 94.976105 -28.716717 138.203278 -0.785420 -168.758820 66.045303 4.235273 1.373973 5.231566 3.563744 -2.170008 9.820285 1.110895 0.227121 26.731340 0.712540 1.797100 -16.967329 15.601124 0.827743 -73.504509 -52.542244 27.502188 -60.090317 5.000000 -11.345999 -58.302139 -30.000000 -45.000000 16.070316 -11.973444 0.630940 90.000000 37.386539 44.862206 68.232582 -5.000000 -12.698889 -4.464056 -21.510632 -35.195042 -66.252876 18.411747 25.041100 103.675438 0.271254 -1.550157 32.390404 2.143049 -7.377809 -57.810074 -6.228317 -39.993389 87.230530 -0.086686 14.700092 34.726212 -4.568309 16.309086 
-2.397001 94.887276 -28.676409 137.515930 -1.460119 -169.625595 66.207848 4.335416 2.018135 5.102817 3.739702 -1.866997 9.562330 0.621137 0.123407 26.810341 0.126899 1.669939 -16.562798 15.971684 0.849534 -75.633217 -52.453037 28.896267 -60.979225 5.000000 -11.546166 -58.807053 -30.000000 -45.000000 15.847577 -12.139227 0.639514 90.000000 37.024548 45.000000 69.916260 -5.000000 -11.770546 -6.598182 -23.380865 -32.487679 -66.184570 17.962606 25.771015 103.336823 0.242318 -1.488322 32.140018 2.700619 -7.730622 -58.375481 -6.627369 -39.995773 87.353134 -0.136727 15.073365 34.962730 -4.307804 16.469873 
-2.648205 94.806206 -28.633091 136.863159 -2.176922 -170.520523 66.389832 4.434329 2.706081 4.974482 3.915633 -1.573731 9.336116 0.193685 0.039866 26.901783 -0.458820 1.533232 -16.197172 16.322739 0.867655 -77.799316 -52.299679 30.317867 -61.886520 5.000000 -11.732578 -59.350948 -30.000000 -45.000000 15.634296 -12.275756 0.646571 90.000000 36.654018 45.000000 71.589081 -5.000000 -10.853934 -8.809968 -25.151340 -29.611444 -66.132179 17.480104 26.502474 103.044395 0.261921 -1.438043 31.868727 3.247576 -8.138616 -58.972824 -7.068918 -39.992596 87.532593 -0.213389 15.480477 35.296211 -4.020979 16.665174 
-2.927076 94.746284 -28.582382 136.260635 -2.916453 -171.444366 66.546654 4.569192 3.458918 4.865080 4.111060 -1.319476 9.140748 -0.153601 -0.036047 27.035728 -1.025090 1.386846 -15.840660 16.625034 0.886028 -80.034271 -52.032871 31.799803 -62.815865 5.000000 -11.916557 -59.993069 -30.000000 -45.000000 15.459979 -12.402532 0.655218 90.000000 36.213585 45.000000 73.257408 -5.000000 -9.948437 -10.729842 -26.600616 -26.586185 -66.029785 16.909187 27.206135 102.783752 0.222931 -1.394487 31.548302 3.898975 -8.479396 -59.566742 -7.496706 -39.531853 87.791039 -0.302337 15.844633 35.571465 -3.714352 16.804794 
-3.247442 94.718124 -28.520588 -44.281712 -176.302155 7.593747 66.693748 4.754232 4.295554 4.801736 4.316202 -1.153705 8.994853 -0.387370 -0.079730 27.211790 -1.571891 1.250333 -15.531960 16.859068 0.898111 -82.370720 -51.594452 33.370708 -63.781029 5.000000 -12.098151 -60.786156 -30.000000 -45.000000 15.334282 -12.509804 0.660776 90.000000 35.651390 45.000000 74.888374 -5.000000 -9.086374 -12.049774 -27.727398 -23.434927 -65.923233 16.255434 27.884695 102.599640 0.212983 -1.361053 31.209877 4.595223 -8.841948 -60.163742 -8.015716 -38.800438 88.196846 -0.428236 16.152035 35.817200 -3.240928 16.902851 
-3.567809 94.689957 -28.458797 -44.799755 -175.508728 6.641201 66.843071 4.930608 5.139036 4.739790 4.531111 -0.977473 8.839677 -0.621137 -0.123407 27.400026 -2.128504 1.113964 -15.223320 17.093103 0.910178 -84.650673 -51.125000 34.885769 -64.760345 5.000000 -12.224115 -61.582207 -30.000000 -45.000000 15.208478 -12.607323 0.665827 90.000000 35.089268 45.000000 76.544472 -5.000000 -8.180509 -13.551703 -28.793161 -20.212990 -65.837425 15.593555 28.554392 102.396400 0.193613 -1.327546 30.950125 5.301977 -9.211374 -60.789032 -8.494198 -38.034061 88.592911 -0.556547 16.447643 36.071747 -2.799222 17.034920 
-3.921576 94.712936 -28.374594 -45.205673 -174.664658 5.659309 66.957260 5.103092 5.908884 4.677963 4.726473 -0.810961 8.800763 -0.641909 -0.130143 27.623692 -2.558244 0.948065 -15.079934 17.278379 0.922622 -86.850365 -50.436546 36.273777 -65.696922 5.000000 -12.328253 -62.647198 -30.000000 -45.000000 15.207399 -12.697654 0.661177 90.000000 34.038872 45.000000 78.574287 -5.000000 -7.020796 -13.773740 -28.728786 -17.272074 -65.632263 14.909999 29.430950 102.206779 0.222934 -1.390646 30.749512 5.948631 -9.537479 -61.414444 -9.012599 -37.102043 89.099968 -0.722309 16.596903 36.115849 -2.514555 16.961340 
